<?xml version="1.0" encoding="UTF-8" standalone="no"?>
<svg
   xmlns:dc="http://purl.org/dc/elements/1.1/"
   xmlns:cc="http://creativecommons.org/ns#"
   xmlns:rdf="http://www.w3.org/1999/02/22-rdf-syntax-ns#"
   xmlns:svg="http://www.w3.org/2000/svg"
   xmlns="http://www.w3.org/2000/svg"
   xmlns:sodipodi="http://sodipodi.sourceforge.net/DTD/sodipodi-0.dtd"
   xmlns:inkscape="http://www.inkscape.org/namespaces/inkscape"
   version="1.1"
   id="svg62"
   width="810.08063"
   height="600"
   viewBox="0 0 810.08065 599.99997"
   sodipodi:docname="logo600.svg"
   inkscape:version="1.0 (4035a4fb49, 2020-05-01)">
  <metadata
     id="metadata68">
    <rdf:RDF>
      <cc:Work
         rdf:about="">
        <dc:format>image/svg+xml</dc:format>
        <dc:type
           rdf:resource="http://purl.org/dc/dcmitype/StillImage" />
        <dc:title></dc:title>
      </cc:Work>
    </rdf:RDF>
  </metadata>
  <defs
     id="defs66" />
  <sodipodi:namedview
     fit-margin-bottom="0"
     fit-margin-right="0"
     fit-margin-left="0"
     fit-margin-top="0"
     inkscape:document-rotation="0"
     pagecolor="#ffffff"
     bordercolor="#666666"
     borderopacity="1"
     objecttolerance="10"
     gridtolerance="10"
     guidetolerance="10"
     inkscape:pageopacity="0"
     inkscape:pageshadow="2"
     inkscape:window-width="1920"
     inkscape:window-height="1054"
     id="namedview64"
     showgrid="false"
     inkscape:pagecheckerboard="true"
     inkscape:zoom="0.5"
     inkscape:cx="-105.24287"
     inkscape:cy="48.979247"
     inkscape:window-x="0"
     inkscape:window-y="26"
     inkscape:window-maximized="1"
     inkscape:current-layer="g70" />
  <g
     transform="translate(-199.87511,-3.449791e-4)"
     inkscape:groupmode="layer"
     inkscape:label="Image"
     id="g70">
    <path
       style="fill:#000000;stroke-width:0.120001"
       d="m 927.54725,599.80438 c -0.14639,-0.16519 0.28787,-6.35847 3.21081,-45.80575 1.85907,-25.08809 3.41011,-45.84421 3.44668,-46.12471 l 0.0668,-0.51004 h 37.68151 c 34.19775,0 37.69895,0.0178 37.87125,0.18982 0.1617,0.16188 0.1696,0.27789 0.049,0.78916 -0.076,0.32965 -0.136,0.82475 -0.1342,1.10023 0,0.297 -4.8686,18.76968 -11.97003,45.3919 -11.20424,42.00314 -11.99345,44.90003 -12.26846,45.03034 -0.2205,0.10474 -7.46692,0.13842 -29.04024,0.13475 -26.13679,-0.004 -28.76161,-0.0245 -28.91559,-0.19564 z M 821.4558,570.78141 c -22.05229,-1.09911 -38.75278,-5.10386 -50.70029,-12.1579 -10.00078,-5.90467 -17.48877,-14.17662 -23.53535,-25.99941 -1.68292,-3.29051 -2.51029,-5.17201 -3.89155,-8.84953 -4.06298,-10.81766 -6.43742,-25.04845 -7.37326,-44.19085 -0.39691,-8.11671 -0.42876,-22.28302 -0.0674,-29.92471 1.70932,-36.14766 10.11275,-60.5417 25.62749,-74.39341 8.58688,-7.66649 19.39483,-13.01797 33.12019,-16.39929 8.94599,-2.2039 18.63679,-3.50748 30.00015,-4.03552 3.93853,-0.18302 15.08764,-0.18578 18.66013,-0.005 12.78799,0.64848 23.90439,1.86331 40.80191,4.45892 10.05365,1.54433 16.11757,2.70585 24.29854,4.65423 l 5.40002,1.28607 0.0306,27.56896 0.0306,27.56896 h -0.51879 c -0.28543,0 -4.91596,-0.37559 -10.29032,-0.83466 -17.42531,-1.48841 -27.28584,-2.18457 -40.37175,-2.85026 -5.93106,-0.30172 -22.18288,-0.30184 -26.6402,0 -6.42394,0.43469 -9.10132,0.85614 -12.2401,1.92669 -2.84006,0.96867 -5.3795,2.14403 -7.15766,3.31284 -4.79775,3.1537 -6.57775,10.52937 -7.3073,30.27916 -0.17518,4.73507 -0.17763,17.2782 -0.005,20.72684 0.61128,12.18116 2.3522,20.99982 5.31905,26.9402 3.21001,6.42723 9.21065,10.0915 18.09086,11.04712 2.02513,0.21793 5.66022,0.23814 10.68006,0.0594 1.88106,-0.067 3.56857,-0.12287 3.75005,-0.12409 l 0.33014,-0.002 v -7.50005 -7.50006 h -4.6606 -4.66061 l -0.079,-10.65007 c -0.0429,-5.85754 -0.11515,-17.35962 -0.15864,-25.56018 l -0.0796,-14.9101 h 38.77973 38.77973 v 58.61497 58.61498 l -0.39016,0.068 c -1.62038,0.28255 -13.30292,2.05374 -18.99009,2.87906 -20.81883,3.02124 -37.94047,4.89942 -52.1404,5.7196 -5.55505,0.32089 -17.51426,0.40683 -22.44014,0.16134 z M 525.2938,463.44361 V 358.68287 l 35.85025,0.005 35.85024,0.005 23.98818,39.59521 23.98812,39.59521 h 1.90201 1.90207 v -39.60028 -39.60028 h 36.48027 36.48026 v 104.76074 104.76074 l -36.03026,-0.005 -36.03026,-0.005 -23.65087,-42.50553 -23.65081,-42.50553 -2.05937,-0.0331 -2.0593,-0.0331 v 42.54313 42.54314 H 561.77407 525.2938 V 463.44349 Z m 409.9228,-9.24006 v -31.32023 h 35.82029 35.82021 v 31.32023 31.32021 H 971.03689 935.2166 Z M 284.39206,343.12137 c -15.20413,-0.20568 -32.74865,-1.84807 -52.38057,-4.90339 -9.61142,-1.49584 -13.62418,-2.28919 -25.68004,-5.07715 l -5.10002,-1.17941 -0.0429,-0.58935 c -0.0551,-0.82356 2.99889,-55.0463 3.10877,-55.17271 0.049,-0.0564 3.07796,0.30681 6.73057,0.80764 23.9788,3.28786 42.83487,5.07767 60.91704,5.78225 6.29226,0.24518 14.8,0.18859 16.8846,-0.11227 5.18136,-0.74781 8.14514,-2.15955 9.27693,-4.41888 1.41789,-2.83043 0.0306,-5.24696 -3.74994,-6.53415 -1.92822,-0.65644 -8.22317,-1.8922 -15.52343,-3.04739 -11.93189,-1.8881 -17.81922,-3.01744 -25.30145,-4.85354 -13.92933,-3.41818 -24.4949,-7.55758 -32.42444,-12.70328 -4.80553,-3.11846 -8.89259,-7.1379 -11.97581,-11.77771 -4.56984,-6.87688 -7.65931,-16.3247 -8.84873,-27.06019 -0.38159,-3.44527 -0.4998,-15.77885 -0.22969,-23.94016 0.14945,-4.51534 0.42202,-7.23484 1.17191,-11.70009 2.14052,-12.74452 6.44219,-22.9479 12.75332,-30.2501 9.72203,-11.24887 27.64366,-18.37065 51.45128,-20.44591 5.07674,-0.44253 8.05198,-0.56271 15.48012,-0.62547 8.03318,-0.0679 13.74595,0.0775 22.04924,0.56112 17.09904,0.9958 37.62492,3.3376 55.79724,6.36591 3.5453,0.59082 6.47485,1.07417 6.51007,1.07417 0.0368,0 0.0643,0.51916 0.0643,1.15368 0,1.78317 -1.80199,55.52868 -1.86385,55.59052 -0.0306,0.03 -2.01251,-0.14657 -4.40544,-0.39255 -23.7844,-2.44468 -39.52662,-3.67488 -53.1258,-4.15159 -8.54738,-0.29964 -22.84746,-0.011 -27.24554,0.55027 -2.97647,0.3797 -4.36452,1.13345 -5.14228,2.79229 -0.27869,0.59407 -0.31728,0.82594 -0.31422,1.87777 0.003,1.07128 0.0429,1.27726 0.34913,1.92002 0.22601,0.4704 0.64852,1.02009 1.21937,1.5856 0.71394,0.70719 1.10012,0.97397 2.11069,1.45801 2.79021,1.33644 8.43217,2.83778 23.73706,6.3165 15.09449,3.43088 25.67906,6.26129 33.12025,8.85665 7.8365,2.73324 14.34669,6.10745 20.76016,10.7599 6.11371,4.43501 10.44565,9.62392 13.02668,15.60365 2.25022,5.21329 3.71141,12.83416 4.3715,22.80016 0.36751,5.54394 0.36934,15.28034 0.004,20.40014 -1.14122,16.00503 -5.18056,28.43329 -12.34411,37.98027 -2.43905,3.2506 -5.90546,6.69419 -9.31827,9.25686 -11.64848,8.74682 -27.53329,13.66995 -48.72037,15.09975 -2.98332,0.20133 -11.03261,0.43579 -13.56011,0.39494 -0.85799,-0.0141 -2.47801,-0.0374 -3.59999,-0.0527 z m 176.64128,-0.4083 c -19.89114,-0.69442 -35.86213,-4.27281 -46.80035,-10.48587 -10.29289,-5.84654 -18.08836,-14.76289 -23.40005,-26.76473 -5.38049,-12.15723 -8.63632,-28.91552 -9.83848,-50.64035 -0.35893,-6.48391 -0.4312,-9.07484 -0.50286,-17.94013 -0.0735,-9.13311 0.0245,-14.56116 0.38771,-21.54015 1.40411,-26.94183 6.13913,-47.31919 14.06745,-60.54043 2.28936,-3.81777 4.48212,-6.64899 7.39164,-9.54384 2.40377,-2.39169 4.5046,-4.10909 7.33413,-5.99546 2.59953,-1.73307 4.05484,-2.56068 7.1927,-4.09047 13.49671,-6.57998 32.05326,-9.882 55.573,-9.88882 13.27579,-0.004 26.31435,1.25549 42.95505,4.1489 3.23335,0.56222 20.92009,4.00842 21.57014,4.20289 0.17456,0.0521 0.21009,0.20899 0.21192,0.92475 0.004,1.44749 -1.82354,55.45856 -1.87812,55.51578 -0.0306,0.0294 -1.81797,-0.14773 -3.9776,-0.39359 -11.37053,-1.29472 -20.66265,-2.02679 -31.70672,-2.49794 -4.7319,-0.20188 -15.97797,-0.20568 -18.36012,-0.006 -8.0205,0.67157 -13.46199,2.15972 -17.50935,4.78849 -1.29006,0.83787 -3.27666,2.80877 -4.08816,4.05584 -2.56493,3.9414 -4.27277,10.39891 -5.09396,19.26013 -0.4557,4.9162 -0.58065,9.21663 -0.50654,17.40012 0.0833,9.20671 0.2499,13.19827 0.80814,19.38014 0.97603,10.80673 2.95803,17.25704 6.71072,21.83929 3.85792,4.71075 9.77588,6.64027 21.89936,7.1402 2.84183,0.11717 4.31221,0.0732 27.89375,-0.8342 13.69155,-0.52688 24.90106,-0.94603 24.90994,-0.93151 0.0245,0.0429 0.90748,53.20495 0.90185,54.4018 l -0.005,1.095 -0.33014,0.0698 c -0.1813,0.0386 -1.599,0.36572 -3.15005,0.72749 -15.94318,3.71843 -32.33054,6.00401 -49.56035,6.91227 -6.49886,0.34258 -16.91743,0.4467 -23.10017,0.23086 z m 375.66261,-0.004 c -28.35803,-1.06489 -48.53496,-6.90729 -62.28035,-18.03383 -1.26225,-1.02176 -4.2631,-3.97562 -5.54991,-5.46305 -6.92969,-8.01002 -11.58613,-18.92572 -13.94941,-32.70005 -0.77231,-4.50142 -1.26568,-9.14456 -1.56128,-14.69214 -0.1519,-2.84653 -0.17701,-13.21319 -0.17824,-72.94854 l -10e-4,-69.63052 h 36.42031 36.42012 l 0.002,68.13048 c 10e-4,42.72607 0.049,68.9175 0.11944,70.24111 0.16966,3.06256 0.54268,4.97822 1.3518,6.94944 1.55441,3.78599 4.3979,6.00363 9.21506,7.18678 5.04073,1.23806 12.39899,1.23808 17.38986,3e-5 6.48042,-1.60754 9.40751,-5.19384 10.19599,-12.49212 0.0864,-0.79943 0.12618,-22.96237 0.12618,-70.5905 v -69.42519 h 36.4829 36.4829 l -0.0429,70.11049 c -0.0306,51.52514 -0.0784,70.63537 -0.18007,72.09051 -0.41406,5.89835 -0.86529,9.97995 -1.53917,13.92009 -3.19825,18.70075 -10.16732,31.74586 -21.64474,40.51581 -14.91637,11.39762 -38.0408,17.05211 -69.30314,16.94633 -2.96857,-0.01 -6.55839,-0.0619 -7.97744,-0.11515 z M 550.37395,234.00199 V 129.24126 h 36.48027 36.48027 v 38.52027 38.52027 h 20.10012 20.10019 v -38.52027 -38.52027 h 36.48026 36.48027 V 234.00199 338.76273 H 700.01506 663.5348 v -36.48026 -36.48025 h -20.10019 -20.10012 v 36.48025 36.48026 H 586.85422 550.37395 Z M 787.49569,93.781008 V 71.040849 h 25.38009 25.38016 v 22.740159 22.740162 h -25.38016 -25.38009 z m 64.44035,0 V 71.040849 h 25.44018 25.44018 v 22.740159 22.740162 h -25.44018 -25.44018 z m -651.9521,14.861912 c -0.13659,-0.1541 -0.1421,-0.29927 -0.0306,-0.7846 0.0753,-0.32756 0.13965,-0.90191 0.14149,-1.27638 0.003,-0.46409 3.87378,-17.482945 12.15747,-53.45146 9.92184,-43.081335 12.196,-52.80330028 12.38594,-52.9486598 0.20397,-0.1561396 2.59524,-0.17232809 19.43274,-0.13155367 18.18146,0.04403906 22.23348,0.11403605 23.64022,0.40839949 3.00415,0.62862968 4.81275,1.20493988 6.89606,2.19741738 5.23201,2.4925073 8.45599,6.4787841 10.03362,12.4060066 1.41482,5.315729 1.50321,13.721579 0.21744,20.698509 -1.2519,6.793805 -3.78957,12.337572 -7.79424,17.027197 -5.13873,6.01761 -11.69124,10.397771 -18.23934,12.192372 -0.84342,0.231159 -1.55337,0.440145 -1.57763,0.4644 -0.0245,0.0245 2.7657,9.686413 6.19996,21.471486 3.43418,11.785079 6.24399,21.539386 6.24399,21.676236 0,0.24795 -0.0184,0.24886 -5.15196,0.24886 -4.80222,0 -5.15643,-0.0141 -5.21639,-0.21002 -0.0368,-0.11552 -2.68706,-9.41708 -5.89254,-20.670162 -3.20548,-11.253076 -5.88439,-20.635644 -5.95305,-20.850143 l -0.12495,-0.389981 h -13.90618 -13.90611 l -0.11883,0.450007 c -0.0655,0.247513 -2.25714,9.630062 -4.87082,20.850142 -2.61367,11.220081 -4.77998,20.494637 -4.81403,20.610137 -0.0551,0.19551 -0.39017,0.20966 -4.82391,0.20544 -4.17966,-0.004 -4.78243,-0.0276 -4.92943,-0.19362 z m 50.32783,-51.204722 c 3.71269,-0.55254 6.22727,-1.300395 8.96143,-2.665233 5.88279,-2.936584 10.67147,-8.340117 13.33967,-15.052335 2.54765,-6.409058 3.275,-15.199602 1.74257,-21.060148 -1.33379,-5.100862 -4.50289,-7.95791 -10.24352,-9.2347068 -2.68118,-0.5963342 -2.45706,-0.5881695 -17.34018,-0.6320824 l -13.98011,-0.041222 -5.57176,24.2141562 c -3.06442,13.317784 -5.59603,24.339675 -5.62573,24.493088 l -0.0551,0.278934 13.72579,-0.05206 c 11.91009,-0.04533 13.90042,-0.07797 15.0458,-0.248432 z m 29.36266,51.044752 c 0.0184,-0.19698 12.43071,-24.630367 27.57782,-54.296396 20.67466,-40.491883 27.59252,-53.93921728 27.75018,-53.94221242 0.11577,-0.002194 0.21009,-0.0580042 0.21009,-0.12398925 0,-0.07903143 3.38286,-0.12000184836 9.90861,-0.12000184836 8.67918,0 9.93114,0.0224789184 10.08996,0.18129515836 0.15558,0.15568634 0.43366,7.79733866 1.9692,54.09038336 0.98338,29.649994 1.78895,54.058161 1.79017,54.240381 l 0.002,0.3313 -5.07,-0.0312 -5.07,-0.0312 -0.62182,-14.700098 c -0.34178,-8.085057 -0.62555,-14.767755 -0.63002,-14.850437 -0.006,-0.119989 -4.27595,-0.144183 -21.13556,-0.119989 l -21.12736,0.03063 -7.69704,14.850106 -7.69703,14.850108 h -5.14344 -5.14345 z M 347.526,68.430833 c -0.0429,-0.907505 -0.48143,-14.178104 -0.97535,-29.490209 -0.49368,-15.312107 -0.93009,-28.339699 -0.96929,-28.9502031 l -0.0711,-1.1100079 -2.1788,2.7e-5 -2.1788,2.69e-5 -14.16012,27.6868381 c -7.78824,15.227762 -14.82383,28.997847 -15.63491,30.600189 l -1.4746,2.913352 h 18.86011 18.86011 z m 27.16206,40.260287 c -0.003,-0.0825 5.6,-24.51715 12.45013,-54.299206 8.40258,-36.531684 12.50354,-54.14958634 12.60472,-54.15038198 0.0827,-6.4864e-4 0.15007,-0.0551866 0.15007,-0.12117785 0,-0.07967456 9.86242,-0.12000185085 29.34728,-0.12000185085 17.93235,0 29.32065,0.0431203108 29.27875,0.11091841085 -0.0367,0.0610054 0.001,0.1285034 0.087,0.1500023 0.11637,0.0291552 -0.10229,1.12713407 -0.86137,4.32911247 l -1.017,4.29003 H 432.3534 407.97909 l -5.16328,22.3501575 -5.16323,22.350159 20.8603,0.03001 20.86025,0.03063 -0.003,0.32965 c -0.002,0.181301 -0.45325,2.192673 -1.00279,4.469688 l -0.99955,4.140035 -20.95732,0.03063 c -11.5266,0.01654 -20.95739,0.0539 -20.95739,0.08263 0,0.02879 -2.37603,10.395099 -5.28003,23.036306 -2.90401,12.641201 -5.28003,23.012589 -5.28003,23.047519 0,0.0349 -2.295,0.0635 -5.10002,0.0635 -3.99757,0 -5.10106,-0.0325 -5.10473,-0.15 z m 66.96999,-0.11871 c 0.003,-0.1492 12.41363,-24.560974 27.57991,-54.24838 C 492.34193,9.098927 496.86723,0.31880128 497.14702,0.17362367 497.43,0.02672064 498.97663,3.5231915e-4 507.30737,3.5231915e-4 c 6.47092,0 9.82634,0.0409765408 9.82634,0.12000185085 0,0.0659973 0.0809,0.12000184 0.18008,0.12000184 0.14332,0 0.18007,0.17415335 0.18007,0.84738259 0,0.4660606 0.78303,24.4817254 1.74007,53.3681454 0.95697,28.886422 1.74,52.940266 1.74,53.452996 v 0.93224 h -5.02848 -5.02853 l -0.0747,-1.23002 c -0.10413,-1.70869 -1.14826,-27.055352 -1.14826,-27.86866 v -0.661529 l -21.15014,0.0011 -21.15021,0.0011 -7.69476,14.849034 -7.69477,14.849025 -5.1753,0.0312 -5.17529,0.0312 0.005,-0.27128 z m 67.91564,-39.247124 c 0,-0.415585 -0.43181,-13.848161 -0.95997,-29.850209 -0.52798,-16.002045 -0.95998,-29.433323 -0.95998,-29.8472819 l -6e-5,-0.7526533 -2.24122,0.032647 -2.24121,0.032647 -14.02249,27.4201932 c -7.71235,15.081086 -14.74506,28.837683 -15.62823,30.570194 l -1.60574,3.150024 h 18.82942 18.82948 z m 27.26998,38.946084 c 0.049,-0.44167 24.50661,-106.9323001 24.76539,-107.82099177 0.0367,-0.11549994 0.13842,-0.21000323 0.23275,-0.21000323 0.0943,0 0.17211,-0.0540229 0.17211,-0.12000184 0,-0.07970519 10.08244,-0.12002635339 30.00733,-0.12002635339 18.33629,0 29.98061,0.0431203134 29.93872,0.11091841339 -0.0367,0.0610054 0.005,0.1285034 0.0943,0.1500023 0.12679,0.0305027 0.0245,0.61977596 -0.46366,2.67910058 -0.34484,1.4520101 -0.80134,3.3823972 -1.01474,4.2897494 l -0.38833,1.6497302 -25.08683,0.030258 -25.08689,0.030258 -4.53473,19.5001373 c -2.49412,10.725076 -4.56843,19.648638 -4.60953,19.83014 l -0.0747,0.329999 h 20.70962 20.70969 v 0.303802 c 0,0.242735 -1.75396,7.919564 -1.99376,8.726263 -0.0612,0.198941 -1.15114,0.210028 -20.74638,0.210028 -19.59456,0 -20.68733,0.01102 -20.74815,0.210027 -0.0367,0.115519 -2.20006,9.444064 -4.81067,20.730148 -2.61062,11.286077 -4.776,20.614641 -4.81208,20.730147 -0.0625,0.199553 1.1814,0.210027 24.9628,0.210027 h 25.02827 l -0.005,0.330018 c -0.003,0.18148 -0.45387,2.22001 -1.00286,4.53003 l -0.99832,4.20003 -30.15267,0.03 -30.1526,0.03 0.0613,-0.57024 z m 79.29077,0.27741 c 0,-0.16079 5.58904,-24.569678 12.42011,-54.241961 6.83102,-29.672281 12.42006,-53.97589565 12.42006,-54.0080313 0,-0.0321565 0.0809,-0.0584329 0.18008,-0.0584329 0.0992,0 0.18007,-0.0540229 0.18007,-0.12000185 0,-0.07803305 1.70289,-0.1200079709 4.86862,-0.1200079709 3.95641,0 4.8993,0.0307477209 5.03258,0.1639919109 0.13842,0.13865872 -1.61046,7.83719491 -11.32141,49.83034711 l -11.48544,49.66636 22.29296,0.03063 c 20.28522,0.02756 22.29289,0.04778 22.29289,0.221114 0,0.174632 -1.73308,8.234492 -1.8747,8.718612 -0.0612,0.19919 -1.47307,0.21003 -27.5336,0.21003 h -27.4721 z"
       id="path78" />
  </g>
</svg>
